<?xml version="1.0" encoding="utf-8"?>
<!-- Generator: Adobe Illustrator 21.1.0, SVG Export Plug-In . SVG Version: 6.00 Build 0)  -->
<svg version="1.1" id="Line_4" xmlns="http://www.w3.org/2000/svg" xmlns:xlink="http://www.w3.org/1999/xlink" x="0px" y="0px"
	 viewBox="0 0 32 24" style="enable-background:new 0 0 32 24;" xml:space="preserve">
<style type="text/css">
	.st0{fill:#FFFFFF;}
</style>
<g id="_x37__18_">
	<g>
		<path class="st0" d="M28,0H4C1.8,0,0,1.8,0,4v16c0,2.2,1.8,4,4,4h24c2.2,0,4-1.8,4-4V4C32,1.8,30.2,0,28,0z M29,2L16,12L3,2H29z
			 M2,20V4l9,7l-8.9,9.6C2,20.4,2,20.2,2,20z M3.6,21.9l9-9.6l3.4,2.6l3.3-2.6l9.2,9.6C28.3,22,3.7,22,3.6,21.9z M30,20
			c0,0.2,0,0.4-0.1,0.6L21,11l9-7V20z"/>
	</g>
</g>
</svg>
