<?xml version="1.0" standalone="no"?>
<!DOCTYPE svg PUBLIC "-//W3C//DTD SVG 20010904//EN"
 "http://www.w3.org/TR/2001/REC-SVG-20010904/DTD/svg10.dtd">
<svg version="1.0" xmlns="http://www.w3.org/2000/svg"
 width="260.000000pt" height="260.000000pt" viewBox="0 0 260.000000 260.000000"
 preserveAspectRatio="xMidYMid meet">
<metadata>
Created by potrace 1.11, written by Peter Selinger 2001-2013
</metadata>
<g transform="translate(0.000000,260.000000) scale(0.100000,-0.100000)"
fill="#000000" stroke="none">
<path d="M0 1300 l0 -1300 1300 0 1300 0 0 1300 0 1300 -1300 0 -1300 0 0
-1300z m1601 82 c125 -376 239 -703 254 -727 31 -53 51 -65 130 -80 54 -10 60
-13 60 -36 l0 -24 -272 -1 -273 -1 0 27 c0 26 4 28 56 34 69 8 94 21 94 48 0
11 -34 124 -76 249 -53 161 -81 232 -94 239 -25 13 -415 13 -440 0 -23 -12
-148 -385 -157 -467 l-6 -51 39 -11 c22 -6 53 -11 71 -11 36 0 47 -11 38 -39
-5 -17 -19 -18 -238 -17 l-232 1 0 24 c0 23 6 26 68 36 102 17 112 31 213 289
154 396 394 1056 394 1085 0 22 10 34 49 59 27 18 52 39 55 48 3 8 14 14 23
12 13 -2 72 -168 244 -686z"/>
<path d="M1240 1709 c-56 -147 -170 -475 -170 -492 0 -15 19 -17 190 -17 161
0 192 2 196 15 6 14 -171 575 -181 575 -2 0 -18 -36 -35 -81z"/>
</g>
</svg>
